<?xml version="1.0" standalone="no"?>
<!DOCTYPE svg PUBLIC "-//W3C//DTD SVG 20010904//EN"
 "http://www.w3.org/TR/2001/REC-SVG-20010904/DTD/svg10.dtd">
<svg version="1.0" xmlns="http://www.w3.org/2000/svg"
 width="200.000000pt" height="200.000000pt" viewBox="0 0 200.000000 200.000000"
 preserveAspectRatio="xMidYMid meet">

<g transform="translate(0.000000,200.000000) scale(0.100000,-0.100000)"
fill="#76d947" stroke="none">
<path d="M1316 1458 c-28 -43 -136 -332 -131 -349 7 -20 29 -31 50 -23 16 7
145 325 145 359 0 21 -17 35 -41 35 -5 0 -15 -10 -23 -22z"/>
<path d="M607 1459 c-9 -6 -17 -19 -17 -30 0 -17 78 -209 130 -321 15 -31 50
-38 70 -13 10 12 -1 46 -61 186 -40 94 -80 174 -89 179 -9 5 -23 4 -33 -1z"/>
<path d="M972 1458 c-13 -13 -18 -281 -6 -312 8 -21 60 -21 68 0 3 9 6 80 6
158 0 145 -5 166 -40 166 -9 0 -21 -5 -28 -12z"/>
<path d="M350 1189 c-10 -18 0 -32 96 -130 106 -107 128 -121 152 -97 24 24
11 45 -91 146 -106 106 -136 121 -157 81z"/>
<path d="M1492 1107 c-83 -83 -103 -109 -100 -128 2 -17 10 -25 28 -27 36 -4
233 194 228 229 -2 17 -10 25 -28 27 -20 2 -45 -18 -128 -101z"/>
<path d="M895 1006 c-76 -18 -140 -53 -199 -107 -83 -75 -125 -151 -150 -271
l-6 -28 -248 0 c-180 0 -251 -3 -260 -12 -17 -17 -15 -55 4 -62 9 -3 445 -6
969 -6 854 0 955 2 969 16 9 8 16 19 16 24 0 5 -7 16 -16 24 -13 14 -51 16
-265 16 l-249 0 -6 28 c-25 120 -67 196 -150 271 -112 103 -264 142 -409 107z"/>
<path d="M1683 898 c-142 -61 -163 -73 -163 -93 0 -12 7 -28 15 -35 12 -10 45
1 185 61 94 40 176 79 182 87 16 19 -2 46 -33 49 -13 1 -97 -30 -186 -69z"/>
<path d="M85 919 c-4 -13 -2 -27 6 -35 22 -21 345 -145 363 -138 22 8 31 44
15 59 -20 18 -326 135 -354 135 -15 0 -26 -7 -30 -21z"/>
</g>
</svg>
